<svg width="108" height="107" xmlns="http://www.w3.org/2000/svg" overflow="hidden">
  <defs>
    <clipPath id="a">
      <path d="M2668 437h108v107h-108z"/>
    </clipPath>
  </defs>
  <g clip-path="url(#a)" transform="translate(-2668 -437)">
    <path d="M2776 455.448c0-10.146-9.23-18.448-18.46-18.448h-71.08c-9.23 0-18.46 8.302-18.46 18.448v71.026c0 9.224 9.23 17.526 18.46 17.526h35.08v-39.664h-12.92v-18.448h12.92v-6.457c0-11.991 9.23-23.06 20.31-23.06h14.77v17.526h-14.77c-.93 0-2.77 1.844-2.77 5.534v6.457h17.54v18.448h-17.54V544h18.46c9.23 0 18.46-8.302 18.46-17.526v-71.026Z" fill="#4d4d4d" fill-rule="evenodd"/>
  </g>
</svg>
