<svg width="152" height="152" xmlns="http://www.w3.org/2000/svg" overflow="hidden">
  <defs>
    <clipPath id="a">
      <path d="M403 912h152v152H403z"/>
    </clipPath>
  </defs>
  <g clip-path="url(#a)" transform="translate(-403 -912)">
    <path d="M536 1064H422c-10.688 0-19-8.31-19-19V931c0-10.688 8.312-19 19-19h114c10.688 0 19 8.312 19 19v114c0 10.69-8.312 19-19 19m-57-105.688c-11.875 0-21.969 7.125-26.719 17.219v.594c-.594.594-.594 1.187-1.187 1.781v1.188c0 .593-.594 1.187-.594 1.781v1.187c-.594.594-.594 1.188-.594 1.782v1.187c0 .594-.594 1.781-.594 2.969 0 16.03 13.657 29.69 29.688 29.69s29.688-13.66 29.688-29.69c0-1.188-.594-2.375-.594-2.969v-1.187c0-.594 0-1.188-.594-1.782v-1.187c0-.594-.594-1.188-.594-1.781v-1.188c-.593-.594-.593-1.187-1.187-1.781v-.594c-4.75-10.094-14.844-17.219-26.719-17.219m58.781-21.375c0-4.156-3.562-7.718-7.718-7.718h-14.844c-4.156 0-7.719 3.562-7.719 7.718v14.844c0 4.156 3.563 7.719 7.719 7.719h14.844c4.156 0 7.718-3.563 7.718-7.719v-14.844Zm0 38.594h-13.656c.594 4.156 1.188 8.313 1.188 12.469 0 25.53-20.782 46.31-46.313 46.31-25.531 0-46.313-20.78-46.313-46.31 0-4.156.594-8.313 1.188-12.469h-13.656v63.529c0 4.16 3.562 7.72 7.718 7.72h102.126c4.156 0 7.718-3.56 7.718-7.72v-63.529Z" fill="#4d4d4d" fill-rule="evenodd"/>
  </g>
</svg>
