<svg width="108" height="107" xmlns="http://www.w3.org/2000/svg" overflow="hidden">
  <defs>
    <clipPath id="a">
      <path d="M2883 437h108v107h-108z"/>
    </clipPath>
  </defs>
  <g clip-path="url(#a)" transform="translate(-2883 -437)">
    <path d="M2982.62 437h-92.17c-3.73 0-7.45 3.69-7.45 8.302v91.319c0 4.612 3.72 7.379 7.45 7.379h92.17c4.66 0 8.38-2.767 8.38-7.379v-91.319c0-4.612-3.72-8.302-8.38-8.302Zm-67.03 90.397h-16.76v-48.888h16.76v48.888Zm-8.38-55.345c-5.59 0-9.31-3.69-9.31-8.302s3.72-8.302 9.31-8.302c5.58 0 9.31 3.69 9.31 8.302s-3.73 8.302-9.31 8.302Zm67.03 55.345h-15.83v-26.75c0-6.457-2.79-10.147-8.38-10.147-4.65 0-7.44 2.767-8.37 5.535-.94.922-.94 2.767-.94 3.689v27.673h-15.82v-48.888h15.82v7.379c1.87-3.69 6.52-8.302 14.9-8.302 11.17 0 18.62 6.457 18.62 21.216v28.595Zm-33.52-41.509Z" fill="#4d4d4d" fill-rule="evenodd"/>
  </g>
</svg>
