<svg width="107" height="74" xmlns="http://www.w3.org/2000/svg" overflow="hidden">
  <defs>
    <clipPath id="a">
      <path d="M2240 470h107v74h-107z"/>
    </clipPath>
  </defs>
  <g clip-path="url(#a)" transform="translate(-2240 -470)">
    <path d="M2335.01 503.031c5.53-.918 10.15-2.753 11.07-7.34-1.85 1.835-8.3 3.67-11.99 1.835 0-.918-.93-1.835-.93-2.753-2.76-10.093-11.99-18.35-23.06-17.433.93 0 1.85-.917 2.77-.917.92 0 8.3-1.835 6.46-3.671-.92-1.835-8.3 1.836-10.15 1.836 1.85-.918 5.54-1.836 5.54-4.588-2.77.917-5.54 1.835-8.31 4.588.93-.918 1.85-1.836 1.85-3.671-8.3 5.506-12.92 15.598-16.6 25.691-3.69-2.752-5.54-4.587-8.31-6.423-6.45-3.67-14.76-7.34-27.67-11.927 0 4.587 1.85 10.092 9.23 13.763-1.85 0-4.62 0-6.46.917.92 4.588 3.69 8.258 11.99 10.093-3.69 0-5.53.917-7.38 2.752 1.85 3.671 5.53 7.341 12.91 6.423-8.3 3.67-2.76 10.093 3.69 9.175-11.07 11.928-29.51 11.011-39.66.918 26.75 36.701 85.78 22.021 94.09-12.845 6.45 0 10.14-2.753 12.91-5.506-3.69.918-9.22 0-11.99-.917Z" fill="#4d4d4d" fill-rule="evenodd"/>
  </g>
</svg>
